<mxfile host="app.diagrams.net" modified="2023-06-29T08:23:18.124Z" agent="Mozilla/5.0 (Windows NT 10.0; Win64; x64) AppleWebKit/537.36 (KHTML, like Gecko) Chrome/114.0.0.0 Safari/537.36" version="21.5.2" etag="chlJqzKarmP7UNB-rvup" type="github">
  <diagram name="Sayfa -1" id="F7MPu0lG__AEdqDeknWz">
    <mxGraphModel>
      <root>
        <mxCell id="0" />
        <mxCell id="1" parent="0" />
      </root>
    </mxGraphModel>
  </diagram>
</mxfile>
